<svg xmlns="http://www.w3.org/2000/svg" viewBox="0 0 48 48" fill="none">
  <rect x="5" y="4" width="38" height="40" rx="6" fill="#8b5cf6" opacity="0.12"/>
  <rect x="5" y="4" width="38" height="40" rx="6" stroke="#8b5cf6" stroke-width="1.8"/>
  <!-- JSON {} 左 -->
  <path d="M20 13 C18 13 16 15 16 17 V19.5 C16 21.5 14.5 23 12.5 23 C14.5 23 16 24.5 16 26.5 V29 C16 31 18 33 20 33" fill="none" stroke="#8b5cf6" stroke-width="1.5" stroke-linecap="round" stroke-linejoin="round" opacity="0.45"/>
  <!-- 右侧 YAML -->
  <path d="M28 13 C30 13 32 15 32 17 V19.5 C32 21.5 33.5 23 35.5 23 C33.5 23 32 24.5 32 26.5 V29 C32 31 30 33 28 33" fill="none" stroke="#8b5cf6" stroke-width="1.5" stroke-linecap="round" stroke-linejoin="round" opacity="0.45"/>
  <!-- 箭头 -->
  <path d="M22 17 L26 17 M22 23 L26 23 M22 29 L26 29" stroke="#8b5cf6" stroke-width="1.3" stroke-linecap="round" opacity="0.3"/>
  <path d="M23 18 L26 17 L23 16 M23 24 L26 23 L23 22 M23 30 L26 29 L23 28" stroke="#8b5cf6" stroke-width="1" stroke-linecap="round" stroke-linejoin="round" opacity="0.5"/>
  <!-- 格式标记：{ } [ ] : -->
  <text x="10" y="41" font-size="6" fill="#8b5cf6" opacity="0.4" font-family="monospace">{ } [ ] :</text>
</svg>
