<svg xmlns="http://www.w3.org/2000/svg" viewBox="0 0 48 48" fill="none">
  <rect x="5" y="4" width="38" height="40" rx="6" fill="#ec4899" opacity="0.12"/>
  <rect x="5" y="4" width="38" height="40" rx="6" stroke="#ec4899" stroke-width="1.8"/>
  <!-- 左侧文本 -->
  <rect x="9" y="8" width="13" height="16" rx="2" fill="#ec4899" opacity="0.15"/>
  <rect x="9" y="8" width="13" height="16" rx="2" stroke="#ec4899" stroke-width="1.2" opacity="0.5"/>
  <line x1="11" y1="13" x2="20" y2="13" stroke="#ec4899" stroke-width="1.5" stroke-linecap="round"/>
  <line x1="11" y1="17" x2="18" y2="17" stroke="#ec4899" stroke-width="1" stroke-linecap="round" opacity="0.5"/>
  <line x1="11" y1="20" x2="20" y2="20" stroke="#ec4899" stroke-width="1.5" stroke-linecap="round"/>
  <!-- 右侧文本（有差异） -->
  <rect x="26" y="8" width="13" height="16" rx="2" fill="#ec4899" opacity="0.15"/>
  <rect x="26" y="8" width="13" height="16" rx="2" stroke="#ec4899" stroke-width="1.2" opacity="0.5"/>
  <line x1="28" y1="13" x2="37" y2="13" stroke="#ec4899" stroke-width="1.5" stroke-linecap="round"/>
  <line x1="28" y1="17" x2="35" y2="17" stroke="#ec4899" stroke-width="1" stroke-linecap="round" opacity="0.5"/>
  <line x1="28" y1="20" x2="34" y2="20" stroke="#ec4899" stroke-width="1.5" stroke-linecap="round"/>
  <!-- 差异高亮标记 -->
  <rect x="19.5" y="19" width="10" height="3" rx="1.5" fill="#ec4899" opacity="0.35"/>
  <!-- 底部分隔线 -->
  <line x1="10" y1="29" x2="38" y2="29" stroke="#ec4899" stroke-width="0.8" opacity="0.2"/>
  <line x1="10" y1="35" x2="28" y2="35" stroke="#ec4899" stroke-width="2" stroke-linecap="round"/>
  <line x1="10" y1="35" x2="20" y2="35" stroke="#28c864" stroke-width="2" stroke-linecap="round"/>
  <line x1="30" y1="35" x2="38" y2="35" stroke="#e24b4a" stroke-width="2" stroke-linecap="round"/>
</svg>
