<svg xmlns="http://www.w3.org/2000/svg" viewBox="0 0 48 48" fill="none">
  <rect x="5" y="4" width="38" height="40" rx="6" fill="#14b8a6" opacity="0.12"/>
  <rect x="5" y="4" width="38" height="40" rx="6" stroke="#14b8a6" stroke-width="1.8"/>
  <!-- 正则 .* 图案 -->
  <circle cx="18" cy="12" r="2.5" fill="#14b8a6" opacity="0.3"/>
  <path d="M14 12 L10 12 M10 16 L14 16" stroke="#14b8a6" stroke-width="1.3" stroke-linecap="round" opacity="0.4"/>
  <path d="M18 15 L18 36" stroke="#14b8a6" stroke-width="1.8" stroke-linecap="round"/>
  <circle cx="18" cy="36" r="2.5" fill="none" stroke="#14b8a6" stroke-width="1.5"/>
  <path d="M22 12 Q30 12 34 18 Q38 24 34 30 Q30 36 22 36" fill="none" stroke="#14b8a6" stroke-width="1.5" opacity="0.5"/>
  <!-- 匹配标记 -->
  <circle cx="18" cy="22" r="1.5" fill="#14b8a6" opacity="0.6"/>
  <circle cx="18" cy="27" r="1.5" fill="#14b8a6" opacity="0.6"/>
  <circle cx="18" cy="32" r="1.5" fill="#14b8a6" opacity="0.6"/>
  <!-- 分组捕获 -->
  <rect x="8" y="39" width="6" height="3" rx="1" fill="#14b8a6" opacity="0.2"/>
  <rect x="17" y="39" width="6" height="3" rx="1" fill="#14b8a6" opacity="0.2"/>
  <rect x="26" y="39" width="6" height="3" rx="1" fill="#14b8a6" opacity="0.2"/>
</svg>
