<svg xmlns="http://www.w3.org/2000/svg" viewBox="0 0 48 48" fill="none">
  <rect x="5" y="4" width="38" height="40" rx="6" fill="#06b6d4" opacity="0.12"/>
  <rect x="5" y="4" width="38" height="40" rx="6" stroke="#06b6d4" stroke-width="1.8"/>
  <!-- 左侧文件 -->
  <path d="M9 10 C9 8.5 10 7.5 11.5 7.5 H17 L22 12.5 V38 C22 39.5 21 40.5 19.5 40.5 H11.5 C10 40.5 9 39.5 9 38 Z" fill="#06b6d4" opacity="0.12" stroke="#06b6d4" stroke-width="1.2"/>
  <line x1="11" y1="14" x2="20" y2="14" stroke="#06b6d4" stroke-width="1.5" stroke-linecap="round" opacity="0.5"/>
  <line x1="11" y1="18" x2="18" y2="18" stroke="#06b6d4" stroke-width="1" stroke-linecap="round" opacity="0.3"/>
  <line x1="11" y1="21" x2="20" y2="21" stroke="#06b6d4" stroke-width="1.5" stroke-linecap="round"/>
  <!-- 右侧文件（稍大） -->
  <path d="M24 8 C24 6.5 25 5.5 26.5 5.5 H32 L37 10.5 V40 C37 41.5 36 42.5 34.5 42.5 H26.5 C25 42.5 24 41.5 24 40 Z" fill="#06b6d4" opacity="0.12" stroke="#06b6d4" stroke-width="1.2"/>
  <line x1="26" y1="12" x2="35" y2="12" stroke="#06b6d4" stroke-width="1.5" stroke-linecap="round" opacity="0.5"/>
  <line x1="26" y1="16" x2="33" y2="16" stroke="#06b6d4" stroke-width="1" stroke-linecap="round" opacity="0.3"/>
  <line x1="26" y1="19" x2="35" y2="19" stroke="#06b6d4" stroke-width="1.5" stroke-linecap="round"/>
  <!-- 图片预览标记 -->
  <circle cx="15" cy="29" r="3" fill="none" stroke="#06b6d4" stroke-width="1"/>
  <path d="M11 36 L15 32 L18 35 L21 31 L24 36" fill="none" stroke="#06b6d4" stroke-width="1.2" stroke-linejoin="round"/>
  <circle cx="15" cy="29" r="1.5" fill="#06b6d4" opacity="0.4"/>
</svg>
